<svg width="234" height="234" viewBox="0 0 234 234" fill="none" xmlns="http://www.w3.org/2000/svg">
<circle cx="117" cy="117" r="113.5" fill="white" stroke="#1A3C94" stroke-width="7"/>
<path d="M164.786 73.9596C164.395 72.8084 163.929 72.5054 163.201 72.2176C161.608 71.6269 158.91 72.5206 158.91 72.5206C158.91 72.5206 63.4064 106.874 57.9503 110.676C56.7755 111.494 56.3819 111.979 56.1866 112.539C55.2435 115.235 58.1819 116.432 58.1819 116.432L82.7978 124.46C82.7978 124.46 83.7152 124.596 84.0422 124.384C89.6421 120.84 140.383 88.7886 143.31 87.7131C143.771 87.5768 144.113 87.7283 144.023 88.0464C142.851 92.1664 98.7799 131.352 98.7799 131.352C98.7799 131.352 98.6119 131.564 98.506 131.806L98.4484 131.776L96.1518 156.208C96.1518 156.208 95.189 163.691 102.669 156.208C107.947 150.922 113.053 146.499 115.608 144.363C124.073 150.21 133.182 156.678 137.113 160.056C139.087 161.752 140.739 162.025 142.098 161.979C145.83 161.843 146.872 157.738 146.872 157.738C146.872 157.738 164.275 87.6526 164.857 78.2613C164.914 77.3374 164.993 76.7618 164.999 76.1256C165.01 75.247 164.928 74.3685 164.786 73.9596Z" fill="#FF0000"/>
</svg>
