<svg width="234" height="234" viewBox="0 0 234 234" fill="none" xmlns="http://www.w3.org/2000/svg">
<circle cx="117" cy="117" r="113.5" fill="white" stroke="#193B92" stroke-width="7"/>
<path d="M143.233 164.804L114.767 123.446L110.713 117.558L77.6817 69.5662H91.8904L118.604 108.379L122.657 114.266L157.442 164.804H143.233ZM163.316 160.764L127.463 108.677L123.409 102.786L97.7618 65.5254L95.6362 62.4375H64.1211L71.8071 73.6062L105.908 123.154L109.962 129.039L137.361 168.849L139.487 171.933H171.002L163.316 160.764Z" fill="#FF0000"/>
<path d="M110.715 117.558L114.769 123.446L109.964 129.039L73.0923 171.933H64L105.91 123.154L110.715 117.558Z" fill="#FF0000"/>
<path d="M167.212 62.4405L127.466 108.68L122.661 114.269L118.607 108.382L123.413 102.789L150.336 71.4518L158.12 62.4405H167.212Z" fill="#FF0000"/>
</svg>
