<svg width="234" height="234" viewBox="0 0 234 234" fill="none" xmlns="http://www.w3.org/2000/svg">
<circle cx="117" cy="117" r="113.5" fill="white" stroke="#193A8F" stroke-width="7"/>
<path d="M60.3066 117.154L77.9684 109.427V89.5575L97.8379 100.596L115.5 92.8691L77.9684 70.7919L60.3066 79.6228V117.154Z" fill="#FF0000"/>
<path d="M174.001 79.6203L158.547 71.8933L138.677 82.9319L151.924 89.5551L59.1992 132.606V154.683L73.5494 161.306L94.5228 152.475L81.2764 144.748L174.001 102.801V79.6203Z" fill="#FF0000"/>
<path d="M173.998 152.478V117.154L157.44 123.777V143.647L136.466 133.712L118.805 143.647L157.44 162.413L173.998 152.478Z" fill="#FF0000"/>
<path d="M117.706 163.517L107.771 159.102L89.0059 167.933L117.706 183.387L146.407 167.933L129.849 159.102L117.706 163.517Z" fill="#FF0000"/>
<path d="M117.706 50.9216L89.0059 65.2718L106.668 76.3104L117.706 70.7911L126.537 76.3104L146.407 67.4795L117.706 50.9216Z" fill="#FF0000"/>
</svg>
